<svg fill="none" height="16" viewBox="0 0 13 16" width="13" xmlns="http://www.w3.org/2000/svg">
    <path clip-rule="evenodd" d="M6.50057 0C4.15627 0 2.25496 1.89972 2.25424 4.24425C2.24704 6.58196 4.13602 8.48399 6.47355 8.49194H6.50057C8.84575 8.49194 10.7461 6.59032 10.7461 4.2456C10.7461 1.90067 8.84553 0 6.50057 0ZM3.8481 4.2456C3.8481 2.78115 5.03566 1.59387 6.50057 1.59387C7.96524 1.59387 9.15228 2.78092 9.15228 4.2456C9.15228 5.71051 7.96502 6.89807 6.50057 6.89807H6.47771C5.02094 6.89244 3.84316 5.70633 3.8481 4.2483V4.2456Z"
        fill="#B9BECC"
        fill-rule="evenodd" />
    <path clip-rule="evenodd" d="M6.50037 9.99754C5.03218 9.99754 3.57873 10.1056 2.46787 10.478C1.9084 10.6656 1.3767 10.9392 0.977723 11.3534C0.559839 11.7871 0.322067 12.3412 0.322067 12.9909C0.322067 13.639 0.557549 14.1929 0.972887 14.6282C1.36985 15.0442 1.89968 15.3205 2.4588 15.5106C3.56869 15.8879 5.02302 16 6.50037 16C7.96863 16 9.42189 15.8918 10.5326 15.5192C11.092 15.3316 11.6235 15.058 12.0224 14.6439C12.4402 14.2101 12.6779 13.6562 12.6779 13.0066C12.6779 12.3587 12.4425 11.8049 12.0272 11.3697C11.6304 10.9537 11.1007 10.6774 10.5416 10.4872C9.43192 10.1098 7.97778 9.99754 6.50037 9.99754ZM1.91593 12.9909C1.91593 12.7619 1.98801 12.602 2.1256 12.4592C2.2821 12.2967 2.55149 12.131 2.97454 11.9892C3.82871 11.7028 5.06595 11.5914 6.50037 11.5914C7.94124 11.5914 9.1774 11.7068 10.0284 11.9962C10.4498 12.1395 10.718 12.3064 10.8741 12.4699C11.0117 12.6142 11.0841 12.7761 11.0841 13.0066C11.0841 13.2354 11.012 13.3953 10.8745 13.5381C10.718 13.7006 10.4487 13.8662 10.0257 14.0081C9.17175 14.2946 7.9347 14.4061 6.50037 14.4061C5.05938 14.4061 3.82302 14.2909 2.97181 14.0016C2.55038 13.8583 2.28206 13.6914 2.12601 13.5279C1.98833 13.3836 1.91593 13.2217 1.91593 12.9909Z"
        fill="#B9BECC"
        fill-rule="evenodd" />
</svg>
