<svg fill="none" height="16" viewBox="0 0 19 16" width="19" xmlns="http://www.w3.org/2000/svg">
    <path clip-rule="evenodd" d="M0.931671 0.615802C0.537358 1.01011 0.315903 1.54486 0.315903 2.10256V11.5447C0.315903 12.1024 0.537358 12.6371 0.93168 13.0315C1.32598 13.4258 1.86072 13.6472 2.41843 13.6472H3.8022C3.80227 13.6472 3.80233 13.6472 3.8024 13.6472C5.69455 13.6473 7.50874 14.3993 8.84647 15.7371C9.01882 15.9056 9.2502 16 9.49115 16C9.73205 16 9.96338 15.9056 10.1358 15.7371C11.4782 14.3951 13.3 13.6432 15.1984 13.6472H16.5816C17.1393 13.6472 17.674 13.4258 18.0683 13.0315C18.4627 12.6372 18.6841 12.1024 18.6841 11.5447V2.10256C18.6841 1.5449 18.4627 1.0102 18.0684 0.615844C17.6741 0.221732 17.1394 0.000115066 16.5819 3.31762e-05C16.5818 3.31762e-05 16.5817 3.31762e-05 16.5816 3.31762e-05H15.1981L15.1974 3.22606e-05C13.1891 -0.00536869 11.2378 0.66753 9.65979 1.90993C9.56613 1.98367 9.43416 1.98367 9.3405 1.90992C7.76271 0.667535 5.81139 -0.00534464 3.80288 3.22606e-05L3.80219 3.31762e-05H2.41843C1.86082 3.31762e-05 1.32608 0.221641 0.931671 0.615802ZM8.45025 12.9477C8.37109 12.994 8.27332 12.9948 8.19342 12.9498C6.85316 12.1955 5.34067 11.8004 3.80277 11.8026H2.41864C2.27612 11.8026 2.16058 11.6871 2.16058 11.5446V2.1024C2.16058 1.95988 2.27612 1.84434 2.41864 1.84434H3.80206C5.52656 1.84034 7.19339 2.46514 8.49013 3.6021C8.54601 3.6511 8.57806 3.72182 8.57806 3.79614L8.57806 12.7249C8.57806 12.8166 8.5294 12.9014 8.45025 12.9477ZM16.7643 11.7273C16.7159 11.7757 16.6503 11.8028 16.5818 11.8028L15.1975 11.8026C13.6596 11.8004 12.1471 12.1955 10.8069 12.9498C10.727 12.9948 10.6292 12.994 10.5501 12.9477C10.4709 12.9014 10.4223 12.8166 10.4223 12.7249V3.79599C10.4223 3.72167 10.4543 3.65095 10.5102 3.60195C11.8069 2.46499 13.4738 1.8402 15.1982 1.84419H16.5817C16.7242 1.84419 16.8397 1.95972 16.8397 2.10224L16.8399 11.5448C16.8399 11.6132 16.8128 11.6789 16.7643 11.7273Z"
        fill="#B9BECC"
        fill-rule="evenodd" />
</svg>
