<svg fill="none" height="18" viewBox="0 0 18 18" width="18" xmlns="http://www.w3.org/2000/svg">
    <path clip-rule="evenodd" d="M15.632 3.37544H4.80929L4.66588 2.79043C4.47224 1.99665 4.01844 1.2904 3.37653 0.7848C2.73483 0.279048 1.94205 0.00301917 1.12491 0.000457764C0.722924 0.000457764 0.351565 0.214887 0.150671 0.562912C-0.0502236 0.910937 -0.0502236 1.33982 0.150671 1.68782C0.351565 2.03605 0.722969 2.25048 1.12491 2.25048C1.43979 2.25008 1.74582 2.35563 1.99363 2.54985C2.24141 2.74428 2.4168 3.01619 2.49174 3.32204L4.3002 10.7361L4.30039 10.7359C4.50933 11.602 5.00292 12.3728 5.70193 12.9251C6.40115 13.4774 7.26535 13.7791 8.15621 13.7819H12.9375C13.8311 13.7878 14.7006 13.4929 15.4064 12.9451C16.1125 12.3974 16.6138 11.6281 16.83 10.7612L17.9382 6.32878C18.1158 5.61857 17.9563 4.86622 17.5056 4.28945C17.0552 3.71249 16.3638 3.37544 15.6318 3.37564L15.632 3.37544ZM15.7501 5.78306L14.6477 10.2127C14.5541 10.5894 14.3372 10.9239 14.0313 11.1631C13.7255 11.4022 13.3484 11.5319 12.9602 11.5317H8.15637C7.76695 11.5319 7.3887 11.401 7.08264 11.1603C6.77659 10.9196 6.56042 10.5827 6.46896 10.2043L5.35796 5.62552H15.6322C15.7022 5.62552 15.7588 5.68222 15.7588 5.75206C15.7572 5.76265 15.7544 5.77305 15.7503 5.78306L15.7501 5.78306Z"
        fill="#DB8A79"
        fill-rule="evenodd" />
    <path
        d="M7.03974 16.8755C7.03974 17.4969 6.53595 18.0005 5.91463 18.0005C5.29331 18.0005 4.78972 17.4969 4.78972 16.8755C4.78972 16.2542 5.29331 15.7504 5.91463 15.7504C6.53595 15.7504 7.03974 16.2542 7.03974 16.8755Z"
        fill="#DB8A79" />
    <path
        d="M15.1959 18.0005C15.8173 18.0005 16.321 17.4969 16.321 16.8755C16.321 16.2542 15.8173 15.7504 15.1959 15.7504C14.5746 15.7504 14.071 16.2542 14.071 16.8755C14.071 17.4969 14.5746 18.0005 15.1959 18.0005Z"
        fill="#DB8A79" />
</svg>
