<svg fill="none" height="17" viewBox="0 0 17 17" width="17" xmlns="http://www.w3.org/2000/svg">
    <path
        d="M10.1936 10.4966V15.3753C10.1936 16.4059 10.6267 16.9327 11.2157 16.9894V16.9892C11.5339 17.0204 11.8503 16.9157 12.0869 16.7012C12.3237 16.4865 12.4588 16.1818 12.4588 15.8624V10.9185C13.5845 10.6619 14.5896 10.0308 15.3097 9.12862C16.0298 8.22638 16.4223 7.1063 16.4229 5.95204V1.18646C16.4286 0.898096 16.3273 0.61783 16.1387 0.39975C15.9499 0.181697 15.687 0.0412676 15.4008 0.00571156C15.0818 -0.0254955 14.7644 0.0797764 14.5276 0.295661C14.2905 0.511541 14.1562 0.817878 14.1578 1.13825V5.95201C14.158 6.64372 13.905 7.31171 13.4464 7.82978C12.988 8.34765 12.3555 8.67985 11.6688 8.76363C11.2548 8.82466 10.8768 9.03403 10.6054 9.35279C10.3342 9.67158 10.1878 10.0781 10.1936 10.4966Z"
        fill="#97E087" />
    <path
        d="M11.0431 6.80142C11.3435 6.80141 11.6314 6.68211 11.8439 6.4698C12.0562 6.25728 12.1755 5.96931 12.1755 5.66888V1.13832C12.1755 0.73381 11.9597 0.359895 11.6093 0.157491C11.2589 -0.0447618 10.8271 -0.0447618 10.4768 0.157491C10.1264 0.359941 9.91052 0.73381 9.91052 1.13832V5.66888C9.91052 5.9693 10.0298 6.25728 10.2421 6.4698C10.4547 6.68212 10.7426 6.80142 11.0431 6.80142Z"
        fill="#97E087" />
    <path clip-rule="evenodd" d="M1.9808 16.6009C1.79195 16.819 1.52908 16.9594 1.24288 16.995L1.24298 16.9949C0.92398 17.0261 0.606575 16.9209 0.369757 16.705C0.132742 16.4891 -0.00156631 16.1828 1.37865e-05 15.8624V2.27101C1.37865e-05 1.67017 0.238571 1.09401 0.663453 0.669167C1.08834 0.244325 1.66445 0.00572734 2.26509 0.00572734H2.54833C3.90008 0.00572734 5.19637 0.542759 6.15232 1.4985C7.10806 2.45425 7.6451 3.75074 7.6451 5.1025V8.78355C7.6451 9.38419 7.40631 9.96034 6.98166 10.3852C6.55677 10.81 5.98066 11.0486 5.37982 11.0486H2.26502V15.8142C2.27075 16.1026 2.16943 16.3829 1.9808 16.6009ZM2.26512 2.27093L2.2651 8.78352H5.37989V5.10247C5.37989 4.3515 5.08167 3.63118 4.55055 3.10027C4.01964 2.56917 3.29932 2.27093 2.54835 2.27093H2.26512Z"
        fill="#97E087"
        fill-rule="evenodd" />
</svg>
