<svg fill="none" height="16" viewBox="0 0 17 16" width="17" xmlns="http://www.w3.org/2000/svg">
    <path clip-rule="evenodd" d="M6.33601 5.51604C5.73019 4.91018 5.38986 4.08831 5.38984 3.23129C5.39123 2.37476 5.73194 1.55365 6.33747 0.947921C6.94303 0.342142 7.76385 0.0012115 8.62019 0C9.47676 4.67104e-05 10.2981 0.340434 10.904 0.946287C11.5097 1.55238 11.85 2.37433 11.85 3.23119C11.85 4.08824 11.5097 4.91018 10.904 5.51607C10.2981 6.12216 9.47667 6.46256 8.62001 6.46256C7.76334 6.46256 6.94174 6.12214 6.33607 5.51609L6.33601 5.51604ZM7.44307 4.40832L7.44318 4.40843C7.75528 4.72045 8.17864 4.89591 8.62001 4.89591H8.62049C9.06149 4.89506 9.4841 4.71948 9.79593 4.40775L9.79599 4.40768C10.1079 4.09569 10.2834 3.67276 10.2842 3.23168V3.23121C10.2842 2.78972 10.1088 2.36644 9.79671 2.05423C9.48469 1.7419 9.06127 1.5667 8.62001 1.5667C8.17871 1.5667 7.75531 1.74193 7.44313 2.05423L7.44307 2.05428C7.13119 2.36646 6.9558 2.78973 6.9558 3.23121C6.9558 3.67286 7.13118 4.09612 7.44307 4.40832Z"
        fill="#B9BECC"
        fill-rule="evenodd" />
    <path clip-rule="evenodd" d="M15.5962 13.6403L15.5968 13.6412L16.3684 14.7814L16.3688 14.782C16.5237 15.0149 16.5428 15.3128 16.4189 15.5635C16.2948 15.8147 16.0462 15.9803 15.767 15.9984C15.4877 16.0164 15.22 15.8839 15.0647 15.6509L14.3046 14.5118L14.3045 14.5117C13.9585 13.9939 13.3767 13.6833 12.7542 13.6833C12.1323 13.6833 11.5514 13.9933 11.2051 14.51L11.1598 14.5755C11.159 14.5766 11.1582 14.5778 11.1574 14.579C10.566 15.4666 9.57016 15.9997 8.50402 15.9997C7.43774 15.9997 6.44207 15.4666 5.85062 14.579L5.80405 14.5091C5.45793 13.9915 4.87641 13.6806 4.25365 13.6806C3.63134 13.6806 3.0501 13.9912 2.70391 14.5084L2.70343 14.5091L1.93154 15.6466C1.93118 15.6471 1.93082 15.6476 1.93046 15.6482C1.81551 15.8204 1.63684 15.9401 1.43376 15.981C1.38218 15.9913 1.3303 15.9966 1.27864 15.9968C1.08946 15.9957 0.90717 15.9263 0.765263 15.8011C0.623076 15.6756 0.531181 15.503 0.506603 15.315C0.482036 15.127 0.526521 14.9365 0.631747 14.7786L1.39124 13.6404L1.39137 13.6402C1.53975 13.419 1.7131 13.2158 1.9081 13.0343C1.95666 12.9891 1.98504 12.9263 1.98686 12.86C1.98869 12.7937 1.96382 12.7294 1.91782 12.6816C1.32864 12.0693 1.00416 11.2494 1.01485 10.3995C1.02553 9.54966 1.37055 8.73825 1.97523 8.14102C2.57972 7.54396 3.39519 7.20906 4.24467 7.20906C5.09432 7.20906 5.90963 7.54396 6.51433 8.14105C7.11884 8.73827 7.46382 9.54967 7.4745 10.3995C7.48518 11.2494 7.16086 12.0694 6.57156 12.6816C6.52551 12.7294 6.50062 12.7938 6.50249 12.8601C6.50436 12.9265 6.53283 12.9893 6.5815 13.0345C6.77655 13.2155 6.94998 13.4189 7.09792 13.6401L7.09844 13.6409L7.09894 13.6416C7.09937 13.6423 7.09981 13.6429 7.10026 13.6435L7.14535 13.7086C7.44651 14.1594 7.95271 14.4303 8.49509 14.4303C9.03812 14.4303 9.54501 14.1586 9.84599 13.7066C9.84631 13.7061 9.84663 13.7056 9.84695 13.7051L9.88936 13.6404L9.89008 13.6393C10.0383 13.4185 10.2115 13.2155 10.4062 13.0343C10.4548 12.9891 10.4832 12.9263 10.485 12.86C10.4868 12.7936 10.4619 12.7294 10.4159 12.6816C9.82658 12.0693 9.50212 11.2494 9.51297 10.3996L9.51297 10.3995C9.52366 9.54967 9.86868 8.73825 10.4732 8.14102C11.0777 7.54397 11.8931 7.20906 12.7428 7.20906C13.5923 7.20906 14.4077 7.54396 15.0122 8.141C15.6168 8.73823 15.9618 9.54966 15.9726 10.3996C15.9833 11.2494 15.6588 12.0694 15.0695 12.6816C15.0235 12.7294 14.9986 12.7937 15.0004 12.8601C15.0023 12.9264 15.0307 12.9893 15.0794 13.0344C15.2745 13.2157 15.4478 13.4189 15.5962 13.6403ZM12.7414 8.78165H12.7409C12.2999 8.7825 11.8772 8.9581 11.5654 9.27005C11.2536 9.58202 11.078 10.0048 11.0774 10.446V10.4463C11.0774 10.8877 11.2525 11.3112 11.5647 11.6235L11.5647 11.6236C11.8768 11.9356 12.3 12.111 12.7414 12.111C13.183 12.111 13.6061 11.9356 13.9182 11.6236L13.9183 11.6235C14.2302 11.3112 14.4056 10.8878 14.4056 10.4463C14.4056 10.0049 14.2302 9.58143 13.9183 9.26936C13.6062 8.95713 13.183 8.78165 12.7414 8.78165ZM4.24081 8.78165H4.24033C3.79932 8.7825 3.37667 8.95809 3.06482 9.27005L3.06476 9.27011C2.75316 9.58206 2.57762 10.0048 2.57678 10.4459L2.57678 10.4463C2.57678 10.8878 2.75215 11.3112 3.06404 11.6235L3.06416 11.6236C3.37625 11.9356 3.79942 12.111 4.24099 12.111C4.6824 12.111 5.10554 11.9356 5.41763 11.6236L5.41768 11.6235C5.72987 11.3112 5.90501 10.8877 5.90501 10.4463C5.90501 10.005 5.7299 9.5815 5.41769 9.26936L5.41766 9.26933L5.41763 9.2693C5.10551 8.95709 4.68216 8.78165 4.24081 8.78165Z"
        fill="#B9BECC"
        fill-rule="evenodd" />
</svg>
