<svg fill="none" height="18" viewBox="0 0 18 18" width="18" xmlns="http://www.w3.org/2000/svg">
    <path
        d="M11.7441 9.85282C12.04 9.81652 12.3382 9.89893 12.5733 10.0822L12.5732 10.0821C12.8089 10.266 12.9617 10.5358 12.998 10.8325C13.0345 11.1289 12.9515 11.4277 12.7673 11.663C11.861 12.8206 10.4725 13.4968 9.00227 13.4968C7.53212 13.4968 6.14375 12.8206 5.23727 11.663C4.99397 11.3461 4.93688 10.9239 5.08737 10.5538C5.23785 10.1836 5.57338 9.9211 5.96873 9.86401C6.36428 9.80691 6.76044 9.96387 7.00942 10.2764C7.48936 10.889 8.22416 11.2466 9.0023 11.2466C9.78045 11.2466 10.5155 10.889 10.9952 10.2764C11.1788 10.0416 11.4482 9.88931 11.7441 9.85282Z"
        fill="#82DFF1" />
    <path clip-rule="evenodd" d="M11.0292 0.614405L16.3736 4.17829H16.3735C17.391 4.85658 18.0022 5.99868 18.002 7.22186V14.6251C18.002 15.5204 17.6464 16.3788 17.0133 17.0118C16.3803 17.6449 15.5219 18.0005 14.6266 18.0005H3.37538C2.48005 18.0005 1.62169 17.6449 0.988705 17.0118C0.355525 16.3788 4.952e-08 15.5204 4.952e-08 14.6251V7.22186C-0.000200866 5.99868 0.610983 4.85658 1.62852 4.17829H1.62871L6.97306 0.614405C7.57365 0.214126 8.27921 0.000457764 9.00105 0.000457764C9.72289 0.000457764 10.4285 0.214141 11.029 0.614405H11.0292ZM15.4224 15.4205C15.6333 15.2094 15.7518 14.9233 15.7518 14.6249L15.7519 7.22165C15.7523 6.75171 15.518 6.31262 15.1276 6.05147H15.1274L9.78305 2.48759C9.55194 2.33337 9.28036 2.25116 9.00254 2.25116C8.72473 2.25116 8.45317 2.33337 8.22204 2.48759L2.87769 6.05147C2.48608 6.31206 2.25063 6.75115 2.25043 7.22165V14.6249C2.25043 14.9233 2.36894 15.2094 2.57986 15.4205C2.79098 15.6314 3.07706 15.7499 3.37549 15.7499H14.6267C14.9252 15.7499 15.2113 15.6314 15.4224 15.4205Z"
        fill="#82DFF1"
        fill-rule="evenodd" />
</svg>
