<svg fill="none" height="16" viewBox="0 0 15 16" width="15" xmlns="http://www.w3.org/2000/svg">
    <path clip-rule="evenodd" d="M1.93154 15.8733C1.72413 15.9955 1.47697 16.031 1.24373 15.9724C1.24152 15.9717 1.23929 15.9711 1.23704 15.9705C1.00169 15.9103 0.800035 15.7587 0.676468 15.5496C0.552938 15.3403 0.517877 15.0905 0.578921 14.8554L0.579105 14.8547C0.889642 13.6314 1.38329 12.4621 2.04312 11.3865C2.07273 11.3383 2.06922 11.2767 2.03432 11.2321C0.958894 9.85788 0.439679 8.12915 0.580255 6.38963C0.720849 4.6501 1.51082 3.02731 2.79305 1.84345C4.07539 0.659646 5.75616 0.0016309 7.50123 0H11.962C12.6219 0 13.255 0.262266 13.7216 0.728846C14.1883 1.19561 14.4504 1.82847 14.4504 2.48844V6.94947C14.451 8.64442 13.8319 10.2814 12.7098 11.552C11.5877 12.8226 10.04 13.6391 8.35774 13.8481C6.67528 14.0569 4.97473 13.6438 3.57596 12.6865C3.54455 12.665 3.50556 12.6577 3.4685 12.6664C3.43144 12.675 3.39973 12.6989 3.38111 12.7321C2.92614 13.5434 2.58035 14.4111 2.35247 15.3128C2.29221 15.548 2.14064 15.7498 1.93154 15.8733ZM7.50091 1.82795C7.50283 1.82795 7.50474 1.82799 7.50664 1.82807H11.9618C12.1371 1.82807 12.305 1.89763 12.4289 2.02153L12.429 2.02162C12.5526 2.14548 12.6222 2.31335 12.6222 2.48843V6.94942C12.6222 8.30765 12.0828 9.6102 11.1222 10.5706C10.1619 11.5309 8.85931 12.0705 7.50116 12.0706C6.46488 12.0715 5.453 11.7566 4.6004 11.1674C4.56934 11.1459 4.54864 11.1125 4.54327 11.0751C4.5379 11.0378 4.54836 10.9998 4.57212 10.9705C5.51894 9.8016 6.65754 8.80204 7.93907 8.01461C7.93993 8.01409 7.94079 8.01357 7.94167 8.01306C7.94254 8.01255 7.94342 8.01204 7.94431 8.01155C8.23013 7.8531 8.4096 7.5544 8.41536 7.22758C8.4211 6.90096 8.25212 6.59602 7.97211 6.42789L7.97207 6.42786C7.69266 6.25993 7.34505 6.25351 7.05981 6.4108C5.64967 7.25946 4.39036 8.33624 3.33303 9.59751C3.30484 9.63113 3.26213 9.64904 3.2184 9.64557C3.17466 9.6421 3.13531 9.61769 3.11278 9.58005C2.4899 8.53958 2.25636 7.31183 2.4538 6.11532C2.65122 4.91879 3.267 3.8313 4.19126 3.04613C5.11537 2.26099 6.2882 1.82949 7.50091 1.82795Z"
        fill="#B9BECC"
        fill-rule="evenodd" />
</svg>
