<svg fill="none" height="20" viewBox="0 0 21 20" width="21" xmlns="http://www.w3.org/2000/svg">
    <path
        d="M19.3889 11C20.0025 11 20.5 10.6137 20.5 10C20.5 9.38636 20.0025 9 19.3889 9C15.0933 9 11.5 5.40666 11.5 1.11111C11.5 0.497454 11.1137 0 10.5 0C9.88635 0 9.5 0.497454 9.5 1.11111C9.5 5.40666 5.90666 9 1.61111 9C0.997464 9 0.500002 9.38634 0.500002 10C0.500002 10.6137 0.997464 11 1.61111 11C5.90666 11 9.5 14.5933 9.5 18.8889C9.5 19.5026 9.88635 20 10.5 20C11.1137 20 11.5 19.5026 11.5 18.8889C11.5 14.5933 15.0933 11 19.3889 11Z"
        fill="#B794FB" />
</svg>
