<svg fill="none" height="18" viewBox="0 0 18 18" width="18" xmlns="http://www.w3.org/2000/svg">
    <path
        d="M14.2034 5.62499H12.2148L11.4189 4.4016L9.70328 1.7578L9.66954 1.70719C8.93543 0.639141 7.72281 0.000602995 6.42686 3.16915e-07H5.14145C4.39163 -0.000392027 3.68851 0.363531 3.25594 0.976239C2.82355 1.58871 2.71604 2.37325 2.96735 3.07974V3.13035L3.40621 4.21879H2.25029C1.54912 4.21879 0.888193 4.54544 0.462454 5.10242C0.0367353 5.65939 -0.105114 6.38291 0.0789172 7.05936L0.922711 10.1532C1.08515 10.8687 1.44437 11.5246 1.95971 12.0468C2.4749 12.5692 3.12604 12.9371 3.83915 13.1091L3.20353 15.0498C2.9789 15.7354 3.097 16.4872 3.52056 17.0713C3.94432 17.6553 4.62235 18.0008 5.3439 18H6.66576C8.0147 18.0035 9.27067 17.3129 9.99006 16.172L11.8858 13.2188H14.2033C15.5597 13.2188 16.8131 12.4951 17.4913 11.3203C18.1696 10.1455 18.1696 8.6983 17.4913 7.52353C16.8131 6.34876 15.5598 5.62499 14.2034 5.62499ZM5.1416 2.25009H6.42404C6.97926 2.25029 7.49871 2.52377 7.81341 2.98129L9.52902 5.62509H6.66868C6.54135 5.62411 6.42012 5.56996 6.33399 5.47599L6.29181 5.42812C6.26748 5.39437 6.24747 5.35749 6.23276 5.31845L5.09099 2.32605C5.08452 2.30859 5.08707 2.28917 5.09766 2.27386C5.10845 2.25876 5.12591 2.24973 5.14435 2.25013M14.2035 10.9689H10.657L8.09188 14.9683C7.78191 15.4558 7.24377 15.7509 6.666 15.7501H5.34414L6.90793 10.9689H4.75914C4.36756 10.9714 3.98717 10.8374 3.68327 10.59C3.37958 10.3427 3.17125 9.99736 3.09416 9.61325L2.25057 6.46903H4.21925L4.52863 6.82628C4.58199 6.89651 4.64105 6.96125 4.70304 7.026L5.43991 7.8698L14.2038 7.8696C14.7564 7.8696 15.2671 8.16446 15.5433 8.64294C15.8198 9.12162 15.8198 9.71133 15.5433 10.1899C15.2671 10.6685 14.7564 10.9634 14.2038 10.9634"
        fill="#B794FB" />
</svg>
